<?xml version="1.0" standalone="no"?>
<!DOCTYPE svg PUBLIC "-//W3C//DTD SVG 20010904//EN"
 "http://www.w3.org/TR/2001/REC-SVG-20010904/DTD/svg10.dtd">
<svg version="1.0" xmlns="http://www.w3.org/2000/svg"
 width="321.000000pt" height="321.000000pt" viewBox="0 0 321.000000 321.000000"
 preserveAspectRatio="xMidYMid meet">
<metadata>
Created by potrace 1.11, written by Peter Selinger 2001-2013
</metadata>
<g transform="translate(0.000000,321.000000) scale(0.100000,-0.100000)"
fill="#000000" stroke="none">
<path d="M1465 3196 c-111 -35 -201 -89 -272 -166 -67 -71 -70 -76 -96 -132
-40 -89 -49 -146 -52 -315 -2 -88 -6 -166 -9 -171 -3 -6 -3 -13 1 -15 5 -3 8
-31 7 -64 -2 -78 16 -120 61 -138 31 -13 39 -14 70 -1 22 9 39 26 46 43 6 16
12 119 13 238 3 222 11 276 51 355 117 231 451 256 612 46 64 -84 71 -122 73
-377 0 -126 5 -240 10 -254 22 -58 107 -76 152 -32 30 28 31 40 31 237 0 306
-16 397 -93 510 -44 64 -128 150 -147 150 -7 0 -13 4 -13 9 0 12 -94 55 -160
75 -59 18 -230 18 -285 2z"/>
<path d="M532 2454 c-28 -19 -42 -46 -48 -91 -2 -20 -6 -48 -9 -62 -2 -14 -6
-51 -10 -81 -3 -30 -8 -66 -10 -80 -3 -14 -7 -50 -10 -80 -3 -30 -8 -68 -10
-85 -2 -16 -7 -61 -10 -100 -4 -38 -10 -86 -14 -105 -4 -19 -7 -45 -6 -57 1
-13 -1 -23 -4 -23 -3 0 -6 -12 -6 -27 -1 -29 -12 -124 -21 -177 -5 -30 -9 -65
-19 -171 -3 -33 -7 -71 -10 -85 -2 -14 -7 -47 -10 -75 -3 -27 -8 -61 -10 -75
-3 -14 -7 -52 -10 -85 -3 -33 -8 -67 -10 -75 -4 -15 -14 -94 -20 -155 -1 -16
-5 -50 -9 -75 -3 -25 -8 -67 -11 -95 -3 -27 -8 -63 -10 -80 -5 -38 -13 -106
-20 -170 -4 -27 -8 -61 -10 -75 -2 -14 -7 -43 -11 -65 -14 -85 -9 -116 24
-151 31 -34 68 -52 95 -48 11 1 94 32 185 68 145 57 328 113 428 130 17 3 66
12 110 21 43 8 106 17 139 21 33 3 66 7 73 10 75 24 538 24 682 -1 14 -2 48
-7 75 -10 28 -4 91 -16 140 -26 50 -11 101 -22 115 -25 14 -3 33 -7 42 -10 9
-3 26 -7 37 -9 118 -23 324 -89 431 -139 66 -30 76 -32 115 -22 34 8 67 33 82
61 11 19 10 76 -2 180 -3 28 -8 75 -10 105 -3 30 -7 64 -10 75 -2 11 -7 45
-10 75 -3 30 -7 64 -9 75 -2 11 -7 45 -11 75 -4 30 -9 66 -11 80 -2 14 -6 54
-9 90 -3 36 -8 72 -10 80 -3 13 -12 87 -20 170 -1 14 -5 43 -8 65 -4 22 -9 58
-12 80 -2 22 -9 72 -14 110 -5 39 -9 77 -9 85 0 8 -2 31 -5 50 -3 19 -9 58
-12 85 -3 28 -8 61 -10 75 -2 14 -6 50 -10 81 -3 31 -7 65 -9 75 -2 11 -7 48
-11 84 -3 36 -8 72 -11 81 -2 9 -6 36 -8 61 -4 47 -11 109 -26 228 -5 41 -12
95 -14 119 -6 52 -28 89 -62 101 -14 6 -110 10 -214 10 -220 0 -196 17 -203
-141 -3 -78 -8 -104 -28 -140 -32 -57 -78 -83 -152 -85 -51 -1 -64 2 -100 30
-66 51 -78 81 -80 215 l-2 116 -260 3 c-143 2 -269 1 -281 -2 -19 -5 -20 -12
-20 -98 2 -144 -27 -208 -113 -252 -58 -30 -151 -11 -208 43 -31 29 -44 88
-46 200 -1 53 -6 99 -12 103 -5 4 -96 8 -200 8 -156 0 -195 -3 -213 -16z"/>
</g>
</svg>
